Patient4_TMGait_0pt6_02_right_37_EMG.mot
version=1
nRows=37
nColumns=33
inDegrees=no
endheader
time	1LAddLong	2LGlutMax	3LGlutMed	4LIliopsoas	5LSemiMemb	6LBicFemLong	7LRecFem	8LVastMed	9LVastLat	10LGasMed	11LTibAnt	12lTibPost	13LPeroneusLong	14LSol	15LExtDigLong	16LFlexDigLong	17RAddLong	18RGlutMax	19RGlutMed	20RIliopsoas	21RSemiMemb	22RBicFemLong	23RRecFem	24RVastMed	25RVastLat	26RGasMed	27RTibAnt	28RTibPost	29RPeroneusLong	30RSol	31RExtDigLong	32RFlexDigLong
44.975	0.007477	-0.066223	0.027161	0.024109	0.032806	0.010071	0.009766	0.007324	0.023041	0.12589	-0.000916	0.011292	-0.009308	0.14282	0.00412	0.029449	0.080719	-0.77652	-0.44159	-0.059509	-0.383	0.27069	-0.52917	-0.30441	0.006256	-0.041504	0.1033	0.35355	-0.14328	0.10071	-0.000458	-0.007477
44.976	-0.003662	-0.072479	0.027924	0.050354	0.05188	0.005035	0.032806	0.000916	0.039368	0.23682	-0.00351	-0.000763	0.01236	-0.06073	-0.009155	0.011444	0.009308	-0.79437	-0.50415	-0.057678	-0.51834	0.28961	-0.63629	0.013275	0.15945	0.13351	0.17044	0.22781	-0.1207	0.11459	-0.002441	-0.008087
44.977	-0.000916	-0.081482	0.036774	0.052643	0.061798	0.070343	0.040588	0.008698	0.047607	0.29129	-0.009308	0.005951	0.016327	-0.1593	-0.006561	0.008545	0.031586	-0.75592	-0.95169	-0.039978	-0.20126	0.36499	-0.37323	-0.093384	-0.054169	0.11765	0.1947	0.10284	-0.5217	0.28549	-0.010376	-0.003662
44.978	0.007477	-0.087585	0.075684	0.021973	0.047913	0.13184	0.097504	0.013733	0.048676	0.14435	-0.004272	0.011292	0.024414	-0.1326	0.016327	-0.007477	0.061188	-0.78156	-0.77728	-0.024414	0.12421	0.14313	-0.51483	-0.14084	0.16525	0.055695	0.042725	0.26977	-0.53955	0.10635	-0.000153	-0.008545
44.979	0.008698	-0.074615	0.096436	0.008087	0.022583	0.11856	0.11185	0.011139	0.046082	0.07843	-0.007477	0.005035	0.023956	-0.12238	0.036621	-0.002594	0.030518	-0.71259	-0.3125	-0.070801	0.037994	-0.095673	-0.59174	-0.27466	0.13809	0.10361	-0.017395	0.081024	0.01236	-0.23712	-0.004883	-0.00061
44.98	0.003967	-0.004425	0.10941	-0.021515	0.004272	0.070343	0.13992	0.014343	0.048981	0.44647	-0.023193	-0.010834	0.037079	-0.08194	0.11917	0.005341	0.014954	-0.6691	0.048065	-0.014801	-0.1886	-0.090332	-0.61798	-0.26764	0.076599	0.1091	-0.11719	-0.024567	0.22995	-0.38345	-0.000916	-0.002441
44.981	0.00885	-0.009918	0.12619	-0.005493	0.001678	0.061951	0.13962	0.013428	0.06134	0.017548	-0.051727	-0.004578	0.043945	-0.014343	0.13321	0.010681	0.009003	-0.57251	-0.19012	-0.023499	-0.099335	-0.12344	-0.63263	0.22842	-0.19943	0.083771	-0.12238	-0.046082	-0.18234	-0.55435	-0.005646	0.001221
44.982	0.014343	0.011749	0.14496	-0.002747	0.015411	0.056	0.15015	0.016937	0.076447	-0.51834	-0.030823	0.002747	0.046692	0.19486	0.031738	0.015869	0.025482	-0.57419	-0.32715	-0.003204	0.034332	-0.20691	-0.55298	0.21805	-0.55557	0.063324	-0.045319	-0.041962	-0.24918	-0.56015	-0.00412	-0.004883
44.983	0.003662	0.008698	0.16296	0.009308	0.018158	0.074768	0.14679	0.018921	0.09201	-0.20355	-0.078278	0.004578	-0.013275	0.31448	-0.055542	0.018005	0.092468	-0.65964	0.13351	-0.071106	-0.077515	-0.10468	-0.31326	-0.071869	-0.6807	0.092163	0.062103	-0.04303	-0.28275	-0.58304	-0.001221	-0.002594
44.984	-0.003967	0.026093	0.18829	0.027161	0.005798	0.068665	0.12802	0.019379	0.098877	-0.14816	-0.037994	0.014191	-0.002899	0.30151	-0.09964	0.019073	0.10361	-0.58548	-0.31448	0.073547	-0.14435	0.002594	-0.03891	-0.26093	-0.62943	0.095215	0.13245	-0.049133	-0.25238	-0.58777	-0.005341	-0.008392
44.985	0.007172	0.044403	0.20676	0.013733	0.032959	0.058441	0.11841	0.015564	0.11841	-0.23071	0.02594	0.025177	0.019073	0.21378	-0.097351	0.016632	0.009766	-0.55237	-0.64011	0.14236	-0.42328	0.13168	0.059052	-0.30258	-0.40512	0.077057	0.11917	-0.046692	-0.33295	-0.53879	0.001221	0.000305
44.986	-0.001221	0.06012	0.22095	-0.00824	0.032654	0.041504	0.11963	0.013733	0.1265	-0.23804	0.16159	0.011749	0.018616	0.22354	-0.080261	0.013733	-0.045319	-0.78293	-0.43793	0.22934	-0.28214	0.16907	0.21286	-0.35126	-0.26382	0.056305	0.068512	-0.051727	-0.020294	-0.37033	-0.000153	-0.004578
44.987	-0.009155	0.08728	0.20416	-0.007782	0.016022	0.034637	0.1265	0.014954	0.12482	-0.11322	0.11704	0.003204	-0.017548	0.24597	-0.096893	0.008392	-0.075378	-0.77835	-0.62515	0.063934	0.11093	0.006866	0.43442	-0.45792	-0.24841	0.018463	0.026398	-0.058899	0.34546	-0.14999	-0.00351	-0.002899
44.988	-0.014954	0.069427	0.18204	0.053253	0.021362	0.012817	0.12375	0.010376	0.12833	0.052643	0.024872	-0.001221	0.003357	0.15884	-0.10254	0.010223	-0.13947	-0.76782	-0.52734	-0.13504	0.19363	0.20325	0.36774	-0.07019	-0.26871	-0.031281	0.070343	-0.064087	0.45532	-0.06546	0.002289	-0.009766
44.989	-0.018463	0.09964	0.1561	0.058594	0.028076	0.01709	0.10407	0.016174	0.12283	0.14938	-0.008087	-0.001221	0.022736	0.13031	-0.05722	0.013733	-0.079956	-1.0188	-0.43366	-0.26184	0.020294	-0.02533	0.22614	0.017853	0.08606	-0.020905	0.16083	-0.042877	0.027771	-0.14893	-0.001678	-0.011139
44.99	-0.015259	0.12833	0.12314	-0.00824	0.03067	0.02594	0.10483	0.011444	0.13825	0.19379	-0.014954	-0.004425	0.027313	0.12756	-0.026703	0.007324	-0.048523	-1.3602	0.06134	-0.20233	0.18417	-0.43701	0.1329	0.14008	0.39139	-0.025024	0.18005	0.041504	-0.96558	-0.14786	-0.002747	-0.016327
44.991	-0.021973	0.15427	0.10284	-0.037689	0.027008	0.034485	0.10086	0.014343	0.15854	0.059967	-0.041199	-0.00351	0.029449	0.10407	-0.003815	0.004272	-0.069427	-1.5739	0.18356	-0.035553	0.014038	-0.32105	-0.027924	0.29129	0.4985	-0.058289	-0.070496	0.004425	1.0013	-0.025177	-0.00412	-0.010834
44.992	-0.020142	0.15991	0.074768	-0.023651	0.028839	0.033875	0.11765	0.013885	0.1561	-0.076752	-0.046997	-0.001678	0.040894	-0.009003	0	0.000916	-0.085144	-1.7291	-0.71045	0.20706	-0.10407	0.1683	0.013428	0.19287	0.28564	-0.066376	-0.076599	-0.03479	0.92712	-0.001373	-0.004883	-0.010376
44.993	-0.015717	0.17944	0.037537	0.000458	0.024261	0.034943	0.11414	0.016174	0.15503	-0.072632	-0.028839	-0.002289	0.025024	-0.027466	-0.000153	-0.000305	-0.068817	-1.8097	-1.4763	0.34988	-0.33752	-0.015259	0.21133	0.013428	-0.070343	-0.047607	0.15595	-0.042114	0.054474	-0.16022	-0.004272	-0.007935
44.994	-0.009613	0.20752	0.064392	0.014343	0.029755	0.011139	0.1178	0.016022	0.14771	-0.091858	-0.016632	0.002899	0.029755	0.024719	0.008087	0.006104	-0.074615	-1.9304	-0.60623	0.094452	-0.33402	-0.35461	0.20874	0.022888	-0.24475	-0.03479	0.29327	-0.032501	-1.0222	-0.25543	-0.004425	-0.007782
44.995	-0.011139	0.20172	0.092316	0.037231	0.018463	0.034943	0.11673	0.016937	0.16693	-0.068359	-0.011749	-0.00061	0.042725	0.055695	0.010223	0.05188	-0.066528	-1.9899	0.086975	-0.12024	0.33798	-0.26291	0.2536	0.24399	-0.26611	0.044708	0.3125	-0.024872	-1.5183	-0.25986	-0.001221	-0.001678
44.996	-0.006409	0.26169	0.11688	0.040436	0.023346	0.016327	0.094604	0.015869	0.19913	0.038757	-0.007172	-0.001373	0.002747	0.11246	0.037689	0.13123	-0.087891	-2.1297	0.522	-0.21606	0.29862	-0.19287	0.38254	0.41931	-0.38162	0.055084	0.50827	-0.021667	-2.5029	0.005035	-0.004883	-0.013428
44.997	0.034027	0.26977	0.12131	0.055084	0.018921	0.037842	0.098877	0.027771	0.19852	0.25818	-0.009308	0.005341	0.017242	0.14954	0.036011	0.069885	-0.067291	-2.1935	-0.081787	-0.112	0.25162	-0.16708	0.66574	0.3447	-0.37933	0.040283	0.10651	-0.011292	2.2346	-0.19882	-0.003204	-0.002136
44.998	-0.018463	0.29648	0.12955	0.037842	0.019226	0.021362	0.090942	0.018005	0.20416	0.31281	-0.006866	0.000763	0.000305	0.16388	0.016937	-0.097198	-0.034485	-2.1208	-0.54108	-0.041046	0.14008	0.35767	0.78705	0.289	-0.36468	-0.026855	-0.43915	-0.016022	2.9787	-0.25009	-0.009613	0.006714
44.999	0.007935	0.32059	0.1297	0.027161	0.020447	0.018005	0.085602	0.016327	0.22553	0.29129	-0.005646	0.005798	-0.005493	0.15823	0.01358	-0.22446	-0.006409	-1.8413	-0.91965	-0.044098	-0.026855	0.18417	0.59738	0.10742	-0.20783	-0.083466	-0.32547	-0.020447	1.8906	-0.15015	-0.006256	-0.005798
45	0.007629	0.30975	0.14267	0.016327	0.026245	0.010223	0.10757	0.015106	0.25696	0.076447	-0.00473	0.003967	-0.040283	0.11902	0.010681	-0.001373	0.046539	-1.6568	-1.013	0.021973	-0.18738	-0.027618	0.54031	-0.20508	-0.081635	-0.16953	-0.043335	-0.02243	-2.0879	0.112	-0.003052	-0.00061
45.001	0.001068	0.30899	0.13428	0.009766	0.020599	-0.008545	0.11108	0.012054	0.26306	-0.41748	-0.009918	-0.003204	-0.04715	0.12543	0.03418	0.11063	0.10132	-1.5593	-0.85434	0.006104	-0.12375	0.27039	0.55084	-0.16251	-0.054779	-0.2356	-0.014038	-0.000305	-0.067596	0.32593	-0.003967	-0.000916
45.002	0.02182	0.35629	0.12894	0.012512	0.021057	0.008698	0.11856	0.018311	0.30807	-0.11139	-0.00946	0.002136	-0.040894	0.070343	0.036774	0.10376	0.1564	-1.3187	-0.74326	-0.048981	-0.010529	0.26337	0.43411	-0.28366	-0.088348	-0.27435	0.048676	-0.029755	2.4666	0.24689	-0.000305	-0.007172
45.003	0.013123	0.42221	0.12024	-0.007019	0.016174	0.014191	0.13184	0.012817	0.32608	0.080414	-0.002899	-0.004883	-0.041809	-0.069122	0.053711	0.074005	0.1857	-0.92987	0.31586	-0.009003	-0.21393	-0.38589	0.21866	-0.49408	-0.045471	-0.29343	-0.016174	-0.046997	1.6559	-0.063934	-0.003815	-0.007019
45.004	0.010986	0.43472	0.11398	0.00885	0.008087	0.002747	0.15518	0.013428	0.36819	0.27695	0	-0.00412	-0.054932	-0.077515	0.0737	-0.26916	0.055847	-0.5542	0.49911	-0.00061	-0.7074	-0.3302	0.084229	-0.22614	-0.006561	-0.17563	0.021362	-0.025787	-2.0544	-0.1709	-0.006409	-0.006866
45.005	0.013123	0.47043	0.11917	0.013275	0.013275	0.008698	0.13657	0.009308	0.39063	-0.020294	0.003052	0.001984	-0.072632	-0.068512	0.057068	0.18707	-0.13458	-0.32928	0.25192	0.003357	-1.124	0.1535	0.16037	0.066071	0.13916	0.17014	0.30762	0.088348	-2.5717	0.023804	-0.001373	-0.012817
45.006	0.012512	0.51727	0.11948	-0.001831	0.008087	0.011139	0.12375	0.012817	0.41122	-0.27405	0.005188	0.005341	-0.066833	-0.034332	-0.016785	0.15213	-0.10635	-0.12833	0.38879	-0.007324	-0.19699	0.01236	0.37186	0.15549	0.095825	0.25467	0.041046	0.015717	-1.6367	0.059814	-0.003204	-0.014038
45.007	0.00885	0.54764	0.12665	0.022125	0.014648	0.002136	0.10666	0.00885	0.41596	-0.19638	0.005035	0.009918	-0.074158	-0.088654	-0.045624	-1.2955	-0.13123	-0.019379	0.62515	0.017548	0.68497	0.073395	0.34637	0.29419	0.10727	0.14786	-0.16068	-0.009613	1.5594	0.1889	0.002899	-0.018616
45.008	0.008087	0.57678	0.12833	0.023804	0.01297	0.012207	0.082855	0.014343	0.43427	-0.098724	0.004578	0.00885	-0.076904	-0.13626	-0.038757	-0.3183	-0.12848	0.030975	0.20142	0.016327	0.40848	0.35339	0.2565	0.19333	0.1059	0.14496	-0.24033	-0.04303	1.7435	0.10712	-0.000305	-0.015106
45.009	0.006866	0.58929	0.12253	0.008392	0.016174	-0.001221	0.09552	0.00885	0.45166	-0.042419	-0.000153	0.003662	-0.11658	-0.06546	-0.04364	0.96237	-0.09491	-0.1976	-0.24689	0.039978	0.22903	0.3244	0.38681	0.13931	0.082703	0.093994	-0.13001	-0.09552	0.42038	0.49469	0.001221	-0.026855
45.01	-0.00885	0.62485	0.092773	-0.021057	0.015869	-0.01297	0.11017	0.000916	0.45532	-0.02182	-0.004425	-0.000916	-0.11734	0.043488	-0.021057	0.10086	-0.08667	-0.27283	-0.68863	0.007629	0.19714	-0.13534	0.50934	0.12299	0.04715	0.006104	0.16434	0.018005	-0.7843	1.0013	-0.001373	-0.033417
45.011	-0.007019	0.6221	0.076904	-0.005646	0.014038	-0.015106	0.15793	0.015259	0.47821	-0.025635	-0.003967	-0.006104	-0.082092	0.081635	-0.016785	-0.23193	-0.059967	-0.36896	-1.008	-0.038757	0.055542	-0.034485	0.62378	0.048676	-0.063324	-0.12146	0.18982	-0.020752	0.21027	0.63431	-0.002289	-0.025787
